<?xml version="1.0" encoding="UTF-8" standalone="no"?>
<!-- Created with Inkscape (http://www.inkscape.org/) -->

<svg
   width="84.317764"
   height="91.311127"
   viewBox="0 0 22.309074 24.159403"
   version="1.1"
   id="svg1"
   xmlns:xlink="http://www.w3.org/1999/xlink"
   xmlns="http://www.w3.org/2000/svg"
   xmlns:svg="http://www.w3.org/2000/svg">
  <defs
     id="defs1">
    <linearGradient
       id="linearGradient9">
      <stop
         style="stop-color:#41d1f6;stop-opacity:1;"
         offset="0"
         id="stop8" />
      <stop
         style="stop-color:#171be6;stop-opacity:1;"
         offset="1"
         id="stop9" />
    </linearGradient>
    <linearGradient
       xlink:href="#linearGradient9"
       id="linearGradient6"
       gradientUnits="userSpaceOnUse"
       gradientTransform="matrix(0.37698793,0,0,0.37698793,37.951739,51.481025)"
       x1="15.306375"
       y1="63.340015"
       x2="26.591953"
       y2="74.505539" />
    <linearGradient
       xlink:href="#linearGradient9"
       id="linearGradient11"
       gradientUnits="userSpaceOnUse"
       gradientTransform="matrix(0.37698793,0,0,0.37698793,37.951739,51.481025)"
       x1="20.679573"
       y1="10.874077"
       x2="30.794031"
       y2="31.164108" />
    <linearGradient
       xlink:href="#linearGradient9"
       id="linearGradient12"
       gradientUnits="userSpaceOnUse"
       gradientTransform="matrix(0.37698793,0,0,0.37698793,37.951739,51.481025)"
       x1="33.875641"
       y1="25.881496"
       x2="56.606792"
       y2="69.342987" />
    <linearGradient
       xlink:href="#linearGradient9"
       id="linearGradient13"
       gradientUnits="userSpaceOnUse"
       gradientTransform="matrix(0.37698793,0,0,0.37698793,37.951739,51.481025)"
       x1="63.882385"
       y1="29.517492"
       x2="70.293564"
       y2="39.088028" />
  </defs>
  <g
     id="layer1"
     transform="translate(-42.629179,-56.035994)">
    <path
       style="fill:url(#linearGradient6);fill-opacity:1;stroke-width:0.0997446"
       d="m 45.689006,73.965442 a 0.24767897,0.24767897 0 0 0 -0.172024,0.150271 L 44.9212,75.636699 a 1.0837854,1.0837854 0 0 1 -0.613696,0.613696 l -1.520987,0.595965 a 0.24767897,0.24767897 0 0 0 0,0.46123 l 1.520987,0.595965 a 1.0837854,1.0837854 0 0 1 0.613696,0.613696 l 0.595782,1.520804 a 0.24767897,0.24767897 0 0 0 0.461232,0 l 0.595963,-1.520804 a 1.0837854,1.0837854 0 0 1 0.613696,-0.613696 L 48.70886,77.30759 a 0.24767897,0.24767897 0 0 0 0,-0.46123 l -1.520987,-0.595965 a 1.0837854,1.0837854 0 0 1 -0.613696,-0.613696 l -0.595963,-1.520986 a 0.24767897,0.24767897 0 0 0 -0.289208,-0.150271 z"
       id="path11" />
    <path
       style="fill:url(#linearGradient13);fill-opacity:1;stroke-width:0.0997446"
       d="m 63.190044,62.629127 a 1.7481635,1.7481635 0 0 0 -1.748214,1.748213 1.7481635,1.7481635 0 0 0 1.748214,1.747697 1.7481635,1.7481635 0 0 0 1.748214,-1.747697 1.7481635,1.7481635 0 0 0 -1.748214,-1.748213 z"
       id="path10" />
    <path
       style="fill:url(#linearGradient12);fill-opacity:1;stroke-width:0.0997446"
       d="m 54.150194,60.538211 a 0.76113618,0.76113618 0 0 0 -0.528644,0.461793 l -1.83088,4.674107 a 3.3305544,3.3305544 0 0 1 -1.885935,1.885936 l -4.674108,1.83144 a 0.76113618,0.76113618 0 0 0 0,1.417402 l 4.674108,1.83144 a 3.3305544,3.3305544 0 0 1 1.885935,1.885935 l 1.83088,4.673545 a 0.76113618,0.76113618 0 0 0 1.4174,0 l 1.831441,-4.673545 a 3.3305544,3.3305544 0 0 1 1.885934,-1.885935 l 4.674107,-1.83144 a 0.76113618,0.76113618 0 0 0 0,-1.417402 l -4.674107,-1.83144 A 3.3305544,3.3305544 0 0 1 56.870391,65.674111 L 55.03895,61.000004 a 0.76113618,0.76113618 0 0 0 -0.888756,-0.461793 z"
       id="path9" />
    <path
       style="fill:url(#linearGradient11);fill-opacity:1;stroke-width:0.0997446"
       d="m 47.545256,56.043028 a 0.24767897,0.24767897 0 0 0 -0.172024,0.150271 l -0.595782,1.520986 a 1.0837854,1.0837854 0 0 1 -0.613696,0.613696 l -1.520987,0.595965 a 0.24767897,0.24767897 0 0 0 0,0.46123 l 1.520987,0.595965 a 1.0837854,1.0837854 0 0 1 0.613696,0.613696 l 0.595782,1.520804 a 0.24767897,0.24767897 0 0 0 0.461232,0 l 0.595963,-1.520804 a 1.0837854,1.0837854 0 0 1 0.613696,-0.613696 l 1.520987,-0.595965 a 0.24767897,0.24767897 0 0 0 0,-0.46123 l -1.520987,-0.595965 a 1.0837854,1.0837854 0 0 1 -0.613696,-0.613696 l -0.595963,-1.520986 a 0.24767897,0.24767897 0 0 0 -0.289208,-0.150271 z"
       id="path5" />
  </g>
</svg>
